<svg width="20" height="20" viewBox="0 0 20 20" fill="none" xmlns="http://www.w3.org/2000/svg">
<path d="M12.2667 7.32508L8.69166 10.9084L7.31666 9.53341C7.24195 9.44618 7.15002 9.37533 7.04663 9.32531C6.94325 9.27529 6.83064 9.24718 6.71587 9.24275C6.60111 9.23832 6.48666 9.25766 6.37972 9.29955C6.27279 9.34145 6.17566 9.40499 6.09445 9.48621C6.01324 9.56742 5.94969 9.66454 5.9078 9.77148C5.8659 9.87842 5.84656 9.99286 5.85099 10.1076C5.85543 10.2224 5.88354 10.335 5.93356 10.4384C5.98357 10.5418 6.05443 10.6337 6.14166 10.7084L8.09999 12.6751C8.17786 12.7523 8.27021 12.8134 8.37174 12.8549C8.47327 12.8964 8.58199 12.9174 8.69166 12.9167C8.91028 12.9158 9.11978 12.829 9.27499 12.6751L13.4417 8.50842C13.5198 8.43095 13.5818 8.33878 13.6241 8.23723C13.6664 8.13568 13.6882 8.02676 13.6882 7.91675C13.6882 7.80674 13.6664 7.69782 13.6241 7.59627C13.5818 7.49472 13.5198 7.40255 13.4417 7.32508C13.2855 7.16987 13.0743 7.08275 12.8542 7.08275C12.634 7.08275 12.4228 7.16987 12.2667 7.32508ZM9.99999 1.66675C8.35182 1.66675 6.74065 2.15549 5.37024 3.07117C3.99983 3.98685 2.93173 5.28834 2.301 6.81105C1.67027 8.33377 1.50524 10.0093 1.82678 11.6258C2.14833 13.2423 2.942 14.7272 4.10744 15.8926C5.27287 17.0581 6.75773 17.8517 8.37424 18.1733C9.99075 18.4948 11.6663 18.3298 13.189 17.6991C14.7117 17.0683 16.0132 16.0002 16.9289 14.6298C17.8446 13.2594 18.3333 11.6483 18.3333 10.0001C18.3333 8.90573 18.1178 7.8221 17.699 6.81105C17.2802 5.80001 16.6664 4.88135 15.8925 4.10752C15.1187 3.3337 14.2001 2.71987 13.189 2.30109C12.178 1.8823 11.0943 1.66675 9.99999 1.66675ZM9.99999 16.6667C8.68145 16.6667 7.39252 16.2758 6.29619 15.5432C5.19986 14.8107 4.34538 13.7695 3.8408 12.5513C3.33621 11.3331 3.20419 9.99269 3.46143 8.69948C3.71866 7.40627 4.3536 6.21839 5.28595 5.28604C6.2183 4.35369 7.40619 3.71875 8.69939 3.46151C9.9926 3.20428 11.333 3.3363 12.5512 3.84088C13.7694 4.34547 14.8106 5.19995 15.5431 6.29628C16.2757 7.39261 16.6667 8.68154 16.6667 10.0001C16.6667 11.7682 15.9643 13.4639 14.714 14.7141C13.4638 15.9644 11.7681 16.6667 9.99999 16.6667Z" fill="#A7A7A7"/>
</svg>
