<svg width="21" height="20" viewBox="0 0 21 20" fill="none" xmlns="http://www.w3.org/2000/svg">
<path d="M12.6 7.32484L9.02497 10.9082L7.64997 9.53317C7.57527 9.44594 7.48334 9.37509 7.37995 9.32507C7.27656 9.27505 7.16395 9.24694 7.04918 9.24251C6.93442 9.23807 6.81997 9.25741 6.71304 9.29931C6.6061 9.3412 6.50898 9.40475 6.42776 9.48596C6.34655 9.56717 6.283 9.6643 6.24111 9.77124C6.19921 9.87817 6.17987 9.99262 6.18431 10.1074C6.18874 10.2221 6.21685 10.3348 6.26687 10.4381C6.31689 10.5415 6.38774 10.6335 6.47497 10.7082L8.43331 12.6748C8.51117 12.7521 8.60352 12.8132 8.70505 12.8546C8.80658 12.8961 8.9153 12.9171 9.02497 12.9165C9.24359 12.9156 9.45309 12.8288 9.60831 12.6748L13.775 8.50817C13.8531 8.4307 13.9151 8.33853 13.9574 8.23698C13.9997 8.13544 14.0215 8.02651 14.0215 7.9165C14.0215 7.80649 13.9997 7.69757 13.9574 7.59602C13.9151 7.49447 13.8531 7.40231 13.775 7.32484C13.6188 7.16963 13.4076 7.08251 13.1875 7.08251C12.9673 7.08251 12.7561 7.16963 12.6 7.32484ZM10.3333 1.6665C8.68513 1.6665 7.07396 2.15525 5.70355 3.07092C4.33314 3.9866 3.26504 5.28809 2.63431 6.81081C2.00358 8.33353 1.83855 10.0091 2.1601 11.6256C2.48164 13.2421 3.27531 14.727 4.44075 15.8924C5.60619 17.0578 7.09105 17.8515 8.70755 18.173C10.3241 18.4946 11.9996 18.3296 13.5223 17.6988C15.0451 17.0681 16.3465 16 17.2622 14.6296C18.1779 13.2592 18.6666 11.648 18.6666 9.99984C18.6666 8.90549 18.4511 7.82186 18.0323 6.81081C17.6135 5.79976 16.9997 4.8811 16.2259 4.10728C15.452 3.33346 14.5334 2.71963 13.5223 2.30084C12.5113 1.88205 11.4277 1.6665 10.3333 1.6665ZM10.3333 16.6665C9.01476 16.6665 7.72583 16.2755 6.6295 15.543C5.53318 14.8104 4.67869 13.7692 4.17411 12.5511C3.66953 11.3329 3.5375 9.99244 3.79474 8.69924C4.05197 7.40603 4.68691 6.21814 5.61926 5.28579C6.55161 4.35344 7.7395 3.7185 9.0327 3.46127C10.3259 3.20403 11.6664 3.33606 12.8845 3.84064C14.1027 4.34522 15.1439 5.19971 15.8764 6.29604C16.609 7.39236 17 8.6813 17 9.99984C17 11.7679 16.2976 13.4636 15.0474 14.7139C13.7971 15.9641 12.1014 16.6665 10.3333 16.6665Z" fill="#A7A7A7"/>
</svg>
