<svg width="21" height="20" viewBox="0 0 21 20" fill="none" xmlns="http://www.w3.org/2000/svg">
<path d="M12.9333 7.32484L9.35832 10.9082L7.98332 9.53317C7.90861 9.44594 7.81668 9.37509 7.71329 9.32507C7.6099 9.27505 7.49729 9.24694 7.38253 9.24251C7.26776 9.23807 7.15332 9.25741 7.04638 9.29931C6.93944 9.3412 6.84232 9.40475 6.76111 9.48596C6.6799 9.56717 6.61635 9.6643 6.57445 9.77124C6.53256 9.87817 6.51322 9.99262 6.51765 10.1074C6.52208 10.2221 6.55019 10.3348 6.60021 10.4381C6.65023 10.5415 6.72108 10.6335 6.80832 10.7082L8.76665 12.6748C8.84452 12.7521 8.93686 12.8132 9.03839 12.8546C9.13993 12.8961 9.24864 12.9171 9.35832 12.9165C9.57693 12.9156 9.78643 12.8288 9.94165 12.6748L14.1083 8.50817C14.1864 8.4307 14.2484 8.33853 14.2907 8.23698C14.333 8.13544 14.3548 8.02651 14.3548 7.9165C14.3548 7.80649 14.333 7.69757 14.2907 7.59602C14.2484 7.49447 14.1864 7.40231 14.1083 7.32484C13.9522 7.16963 13.741 7.08251 13.5208 7.08251C13.3007 7.08251 13.0895 7.16963 12.9333 7.32484ZM10.6666 1.6665C9.01847 1.6665 7.40731 2.15525 6.0369 3.07092C4.66649 3.9866 3.59838 5.28809 2.96765 6.81081C2.33692 8.33353 2.1719 10.0091 2.49344 11.6256C2.81498 13.2421 3.60866 14.727 4.77409 15.8924C5.93953 17.0578 7.42439 17.8515 9.0409 18.173C10.6574 18.4946 12.333 18.3296 13.8557 17.6988C15.3784 17.0681 16.6799 16 17.5956 14.6296C18.5112 13.2592 19 11.648 19 9.99984C19 8.90549 18.7844 7.82186 18.3656 6.81081C17.9469 5.79976 17.333 4.8811 16.5592 4.10728C15.7854 3.33346 14.8667 2.71963 13.8557 2.30084C12.8446 1.88205 11.761 1.6665 10.6666 1.6665ZM10.6666 16.6665C9.34811 16.6665 8.05918 16.2755 6.96285 15.543C5.86652 14.8104 5.01204 13.7692 4.50745 12.5511C4.00287 11.3329 3.87085 9.99244 4.12808 8.69924C4.38532 7.40603 5.02025 6.21814 5.9526 5.28579C6.88495 4.35344 8.07284 3.7185 9.36605 3.46127C10.6593 3.20403 11.9997 3.33606 13.2179 3.84064C14.436 4.34522 15.4772 5.19971 16.2098 6.29604C16.9423 7.39236 17.3333 8.6813 17.3333 9.99984C17.3333 11.7679 16.6309 13.4636 15.3807 14.7139C14.1305 15.9641 12.4348 16.6665 10.6666 16.6665Z" fill="#A7A7A7"/>
</svg>
