<svg width="21" height="20" viewBox="0 0 21 20" fill="none" xmlns="http://www.w3.org/2000/svg">
<path d="M12.6 7.32508L9.02497 10.9084L7.64997 9.53341C7.57527 9.44618 7.48334 9.37533 7.37995 9.32531C7.27656 9.27529 7.16395 9.24718 7.04918 9.24275C6.93442 9.23832 6.81997 9.25766 6.71304 9.29955C6.6061 9.34145 6.50898 9.40499 6.42776 9.48621C6.34655 9.56742 6.283 9.66454 6.24111 9.77148C6.19921 9.87842 6.17987 9.99286 6.18431 10.1076C6.18874 10.2224 6.21685 10.335 6.26687 10.4384C6.31689 10.5418 6.38774 10.6337 6.47497 10.7084L8.43331 12.6751C8.51117 12.7523 8.60352 12.8134 8.70505 12.8549C8.80658 12.8964 8.9153 12.9174 9.02497 12.9167C9.24359 12.9158 9.45309 12.829 9.60831 12.6751L13.775 8.50842C13.8531 8.43095 13.9151 8.33878 13.9574 8.23723C13.9997 8.13568 14.0215 8.02676 14.0215 7.91675C14.0215 7.80674 13.9997 7.69782 13.9574 7.59627C13.9151 7.49472 13.8531 7.40255 13.775 7.32508C13.6188 7.16987 13.4076 7.08275 13.1875 7.08275C12.9673 7.08275 12.7561 7.16987 12.6 7.32508ZM10.3333 1.66675C8.68513 1.66675 7.07396 2.15549 5.70355 3.07117C4.33314 3.98685 3.26504 5.28834 2.63431 6.81105C2.00358 8.33377 1.83855 10.0093 2.1601 11.6258C2.48164 13.2423 3.27531 14.7272 4.44075 15.8926C5.60619 17.0581 7.09105 17.8517 8.70755 18.1733C10.3241 18.4948 11.9996 18.3298 13.5223 17.6991C15.0451 17.0683 16.3465 16.0002 17.2622 14.6298C18.1779 13.2594 18.6666 11.6483 18.6666 10.0001C18.6666 8.90573 18.4511 7.8221 18.0323 6.81105C17.6135 5.80001 16.9997 4.88135 16.2259 4.10752C15.452 3.3337 14.5334 2.71987 13.5223 2.30109C12.5113 1.8823 11.4277 1.66675 10.3333 1.66675ZM10.3333 16.6667C9.01476 16.6667 7.72583 16.2758 6.6295 15.5432C5.53318 14.8107 4.67869 13.7695 4.17411 12.5513C3.66953 11.3331 3.5375 9.99269 3.79474 8.69948C4.05197 7.40627 4.68691 6.21839 5.61926 5.28604C6.55161 4.35369 7.7395 3.71875 9.0327 3.46151C10.3259 3.20428 11.6664 3.3363 12.8845 3.84088C14.1027 4.34547 15.1439 5.19995 15.8764 6.29628C16.609 7.39261 17 8.68154 17 10.0001C17 11.7682 16.2976 13.4639 15.0474 14.7141C13.7971 15.9644 12.1014 16.6667 10.3333 16.6667Z" fill="#A7A7A7"/>
</svg>
