<svg width="21" height="20" viewBox="0 0 21 20" fill="none" xmlns="http://www.w3.org/2000/svg">
<path d="M12.9333 7.32508L9.35832 10.9084L7.98332 9.53341C7.90861 9.44618 7.81668 9.37533 7.71329 9.32531C7.6099 9.27529 7.49729 9.24718 7.38253 9.24275C7.26776 9.23832 7.15332 9.25766 7.04638 9.29955C6.93944 9.34145 6.84232 9.40499 6.76111 9.48621C6.6799 9.56742 6.61635 9.66454 6.57445 9.77148C6.53256 9.87842 6.51322 9.99286 6.51765 10.1076C6.52208 10.2224 6.55019 10.335 6.60021 10.4384C6.65023 10.5418 6.72108 10.6337 6.80832 10.7084L8.76665 12.6751C8.84452 12.7523 8.93686 12.8134 9.03839 12.8549C9.13993 12.8964 9.24864 12.9174 9.35832 12.9167C9.57693 12.9158 9.78643 12.829 9.94165 12.6751L14.1083 8.50842C14.1864 8.43095 14.2484 8.33878 14.2907 8.23723C14.333 8.13568 14.3548 8.02676 14.3548 7.91675C14.3548 7.80674 14.333 7.69782 14.2907 7.59627C14.2484 7.49472 14.1864 7.40255 14.1083 7.32508C13.9522 7.16987 13.741 7.08275 13.5208 7.08275C13.3007 7.08275 13.0895 7.16987 12.9333 7.32508ZM10.6666 1.66675C9.01847 1.66675 7.40731 2.15549 6.0369 3.07117C4.66649 3.98685 3.59838 5.28834 2.96765 6.81105C2.33692 8.33377 2.1719 10.0093 2.49344 11.6258C2.81498 13.2423 3.60866 14.7272 4.77409 15.8926C5.93953 17.0581 7.42439 17.8517 9.0409 18.1733C10.6574 18.4948 12.333 18.3298 13.8557 17.6991C15.3784 17.0683 16.6799 16.0002 17.5956 14.6298C18.5112 13.2594 19 11.6483 19 10.0001C19 8.90573 18.7844 7.8221 18.3656 6.81105C17.9469 5.80001 17.333 4.88135 16.5592 4.10752C15.7854 3.3337 14.8667 2.71987 13.8557 2.30109C12.8446 1.8823 11.761 1.66675 10.6666 1.66675ZM10.6666 16.6667C9.34811 16.6667 8.05918 16.2758 6.96285 15.5432C5.86652 14.8107 5.01204 13.7695 4.50745 12.5513C4.00287 11.3331 3.87085 9.99269 4.12808 8.69948C4.38532 7.40627 5.02025 6.21839 5.9526 5.28604C6.88495 4.35369 8.07284 3.71875 9.36605 3.46151C10.6593 3.20428 11.9997 3.3363 13.2179 3.84088C14.436 4.34547 15.4772 5.19995 16.2098 6.29628C16.9423 7.39261 17.3333 8.68154 17.3333 10.0001C17.3333 11.7682 16.6309 13.4639 15.3807 14.7141C14.1305 15.9644 12.4348 16.6667 10.6666 16.6667Z" fill="#A7A7A7"/>
</svg>
