<svg width="20" height="20" viewBox="0 0 20 20" fill="none" xmlns="http://www.w3.org/2000/svg">
<path d="M12.2667 7.32484L8.69166 10.9082L7.31666 9.53317C7.24195 9.44594 7.15002 9.37509 7.04663 9.32507C6.94325 9.27505 6.83064 9.24694 6.71587 9.24251C6.60111 9.23807 6.48666 9.25741 6.37972 9.29931C6.27279 9.3412 6.17566 9.40475 6.09445 9.48596C6.01324 9.56717 5.94969 9.6643 5.9078 9.77124C5.8659 9.87817 5.84656 9.99262 5.85099 10.1074C5.85543 10.2221 5.88354 10.3348 5.93356 10.4381C5.98357 10.5415 6.05443 10.6335 6.14166 10.7082L8.09999 12.6748C8.17786 12.7521 8.27021 12.8132 8.37174 12.8546C8.47327 12.8961 8.58199 12.9171 8.69166 12.9165C8.91028 12.9156 9.11978 12.8288 9.27499 12.6748L13.4417 8.50817C13.5198 8.4307 13.5818 8.33853 13.6241 8.23698C13.6664 8.13544 13.6882 8.02651 13.6882 7.9165C13.6882 7.80649 13.6664 7.69757 13.6241 7.59602C13.5818 7.49447 13.5198 7.40231 13.4417 7.32484C13.2855 7.16963 13.0743 7.08251 12.8542 7.08251C12.634 7.08251 12.4228 7.16963 12.2667 7.32484ZM9.99999 1.6665C8.35182 1.6665 6.74065 2.15525 5.37024 3.07092C3.99983 3.9866 2.93173 5.28809 2.301 6.81081C1.67027 8.33353 1.50524 10.0091 1.82678 11.6256C2.14833 13.2421 2.942 14.727 4.10744 15.8924C5.27287 17.0578 6.75773 17.8515 8.37424 18.173C9.99075 18.4946 11.6663 18.3296 13.189 17.6988C14.7117 17.0681 16.0132 16 16.9289 14.6296C17.8446 13.2592 18.3333 11.648 18.3333 9.99984C18.3333 8.90549 18.1178 7.82186 17.699 6.81081C17.2802 5.79976 16.6664 4.8811 15.8925 4.10728C15.1187 3.33346 14.2001 2.71963 13.189 2.30084C12.178 1.88205 11.0943 1.6665 9.99999 1.6665ZM9.99999 16.6665C8.68145 16.6665 7.39252 16.2755 6.29619 15.543C5.19986 14.8104 4.34538 13.7692 3.8408 12.5511C3.33621 11.3329 3.20419 9.99244 3.46143 8.69924C3.71866 7.40603 4.3536 6.21814 5.28595 5.28579C6.2183 4.35344 7.40619 3.7185 8.69939 3.46127C9.9926 3.20403 11.333 3.33606 12.5512 3.84064C13.7694 4.34522 14.8106 5.19971 15.5431 6.29604C16.2757 7.39236 16.6667 8.6813 16.6667 9.99984C16.6667 11.7679 15.9643 13.4636 14.714 14.7139C13.4638 15.9641 11.7681 16.6665 9.99999 16.6665Z" fill="#A7A7A7"/>
</svg>
