<svg width="20" height="20" viewBox="0 0 20 20" fill="none" xmlns="http://www.w3.org/2000/svg">
<path d="M9.99999 1.6665C8.35182 1.6665 6.74065 2.15525 5.37024 3.07092C3.99983 3.9866 2.93173 5.28809 2.301 6.81081C1.67027 8.33353 1.50524 10.0091 1.82678 11.6256C2.14833 13.2421 2.942 14.727 4.10744 15.8924C5.27287 17.0578 6.75773 17.8515 8.37424 18.173C9.99075 18.4946 11.6663 18.3296 13.189 17.6988C14.7117 17.0681 16.0132 16 16.9289 14.6296C17.8446 13.2592 18.3333 11.648 18.3333 9.99984C18.3333 8.90549 18.1178 7.82186 17.699 6.81081C17.2802 5.79976 16.6664 4.8811 15.8925 4.10728C15.1187 3.33346 14.2001 2.71963 13.189 2.30084C12.178 1.88205 11.0943 1.6665 9.99999 1.6665ZM9.99999 16.6665C8.68145 16.6665 7.39252 16.2755 6.29619 15.543C5.19986 14.8104 4.34538 13.7692 3.8408 12.5511C3.33621 11.3329 3.20419 9.99244 3.46143 8.69924C3.71866 7.40603 4.3536 6.21814 5.28595 5.28579C6.2183 4.35344 7.40619 3.7185 8.69939 3.46127C9.9926 3.20403 11.333 3.33606 12.5512 3.84064C13.7694 4.34522 14.8106 5.19971 15.5431 6.29604C16.2757 7.39236 16.6667 8.6813 16.6667 9.99984C16.6667 11.7679 15.9643 13.4636 14.714 14.7139C13.4638 15.9641 11.7681 16.6665 9.99999 16.6665ZM12.5833 10.5248L10.8333 9.5165V5.83317C10.8333 5.61216 10.7455 5.4002 10.5892 5.24392C10.433 5.08764 10.221 4.99984 9.99999 4.99984C9.77898 4.99984 9.56702 5.08764 9.41074 5.24392C9.25446 5.4002 9.16666 5.61216 9.16666 5.83317V9.99984C9.16666 9.99984 9.16666 10.0665 9.16666 10.0998C9.17159 10.1573 9.18566 10.2135 9.20833 10.2665C9.22549 10.3159 9.24784 10.3634 9.27499 10.4082C9.2978 10.4555 9.32574 10.5003 9.35833 10.5415L9.49166 10.6498L9.56666 10.7248L11.7333 11.9748C11.8603 12.0468 12.004 12.0842 12.15 12.0832C12.3345 12.0845 12.5142 12.0245 12.661 11.9126C12.8077 11.8008 12.9132 11.6434 12.9609 11.4651C13.0085 11.2869 12.9957 11.0978 12.9243 10.9277C12.853 10.7575 12.7272 10.6158 12.5667 10.5248H12.5833Z" fill="#00A9DE"/>
</svg>
