<svg width="21" height="20" viewBox="0 0 21 20" fill="none" xmlns="http://www.w3.org/2000/svg">
<path d="M10.3333 1.6665C8.68513 1.6665 7.07396 2.15525 5.70355 3.07092C4.33314 3.9866 3.26504 5.28809 2.63431 6.81081C2.00358 8.33353 1.83855 10.0091 2.1601 11.6256C2.48164 13.2421 3.27531 14.727 4.44075 15.8924C5.60619 17.0578 7.09105 17.8515 8.70755 18.173C10.3241 18.4946 11.9996 18.3296 13.5223 17.6988C15.0451 17.0681 16.3465 16 17.2622 14.6296C18.1779 13.2592 18.6666 11.648 18.6666 9.99984C18.6666 8.90549 18.4511 7.82186 18.0323 6.81081C17.6135 5.79976 16.9997 4.8811 16.2259 4.10728C15.452 3.33346 14.5334 2.71963 13.5223 2.30084C12.5113 1.88205 11.4277 1.6665 10.3333 1.6665ZM10.3333 16.6665C9.01476 16.6665 7.72583 16.2755 6.6295 15.543C5.53318 14.8104 4.67869 13.7692 4.17411 12.5511C3.66953 11.3329 3.5375 9.99244 3.79474 8.69924C4.05197 7.40603 4.68691 6.21814 5.61926 5.28579C6.55161 4.35344 7.7395 3.7185 9.0327 3.46127C10.3259 3.20403 11.6664 3.33606 12.8845 3.84064C14.1027 4.34522 15.1439 5.19971 15.8764 6.29604C16.609 7.39236 17 8.6813 17 9.99984C17 11.7679 16.2976 13.4636 15.0474 14.7139C13.7971 15.9641 12.1014 16.6665 10.3333 16.6665ZM12.9166 10.5248L11.1666 9.5165V5.83317C11.1666 5.61216 11.0788 5.4002 10.9226 5.24392C10.7663 5.08764 10.5543 4.99984 10.3333 4.99984C10.1123 4.99984 9.90033 5.08764 9.74405 5.24392C9.58777 5.4002 9.49997 5.61216 9.49997 5.83317V9.99984C9.49997 9.99984 9.49997 10.0665 9.49997 10.0998C9.50491 10.1573 9.51897 10.2135 9.54164 10.2665C9.5588 10.3159 9.58115 10.3634 9.60831 10.4082C9.63111 10.4555 9.65906 10.5003 9.69164 10.5415L9.82497 10.6498L9.89997 10.7248L12.0666 11.9748C12.1936 12.0468 12.3373 12.0842 12.4833 12.0832C12.6678 12.0845 12.8475 12.0245 12.9943 11.9126C13.141 11.8008 13.2465 11.6434 13.2942 11.4651C13.3418 11.2869 13.329 11.0978 13.2577 10.9277C13.1863 10.7575 13.0605 10.6158 12.9 10.5248H12.9166Z" fill="#FF9900"/>
</svg>
