<svg width="21" height="20" viewBox="0 0 21 20" fill="none" xmlns="http://www.w3.org/2000/svg">
<path d="M10.6667 1.6665C9.01848 1.6665 7.40732 2.15525 6.03691 3.07092C4.6665 3.9866 3.59839 5.28809 2.96766 6.81081C2.33693 8.33353 2.1719 10.0091 2.49345 11.6256C2.81499 13.2421 3.60866 14.727 4.7741 15.8924C5.93954 17.0578 7.4244 17.8515 9.04091 18.173C10.6574 18.4946 12.333 18.3296 13.8557 17.6988C15.3784 17.0681 16.6799 16 17.5956 14.6296C18.5112 13.2592 19 11.648 19 9.99984C19 8.90549 18.7844 7.82186 18.3657 6.81081C17.9469 5.79976 17.333 4.8811 16.5592 4.10728C15.7854 3.33346 14.8667 2.71963 13.8557 2.30084C12.8446 1.88205 11.761 1.6665 10.6667 1.6665ZM10.6667 16.6665C9.34812 16.6665 8.05918 16.2755 6.96286 15.543C5.86653 14.8104 5.01204 13.7692 4.50746 12.5511C4.00288 11.3329 3.87085 9.99244 4.12809 8.69924C4.38532 7.40603 5.02026 6.21814 5.95261 5.28579C6.88496 4.35344 8.07285 3.7185 9.36606 3.46127C10.6593 3.20403 11.9997 3.33606 13.2179 3.84064C14.4361 4.34522 15.4772 5.19971 16.2098 6.29604C16.9423 7.39236 17.3333 8.6813 17.3333 9.99984C17.3333 11.7679 16.6309 13.4636 15.3807 14.7139C14.1305 15.9641 12.4348 16.6665 10.6667 16.6665ZM13.25 10.5248L11.5 9.5165V5.83317C11.5 5.61216 11.4122 5.4002 11.2559 5.24392C11.0996 5.08764 10.8877 4.99984 10.6667 4.99984C10.4456 4.99984 10.2337 5.08764 10.0774 5.24392C9.92112 5.4002 9.83332 5.61216 9.83332 5.83317V9.99984C9.83332 9.99984 9.83332 10.0665 9.83332 10.0998C9.83826 10.1573 9.85232 10.2135 9.87499 10.2665C9.89215 10.3159 9.9145 10.3634 9.94166 10.4082C9.96446 10.4555 9.99241 10.5003 10.025 10.5415L10.1583 10.6498L10.2333 10.7248L12.4 11.9748C12.527 12.0468 12.6707 12.0842 12.8167 12.0832C13.0012 12.0845 13.1809 12.0245 13.3276 11.9126C13.4744 11.8008 13.5799 11.6434 13.6275 11.4651C13.6752 11.2869 13.6624 11.0978 13.591 10.9277C13.5197 10.7575 13.3939 10.6158 13.2333 10.5248H13.25Z" fill="#FF9900"/>
</svg>
