<svg width="21" height="20" viewBox="0 0 21 20" fill="none" xmlns="http://www.w3.org/2000/svg">
<path d="M10.6667 1.66675C9.01848 1.66675 7.40732 2.15549 6.03691 3.07117C4.6665 3.98685 3.59839 5.28834 2.96766 6.81105C2.33693 8.33377 2.1719 10.0093 2.49345 11.6258C2.81499 13.2423 3.60866 14.7272 4.7741 15.8926C5.93954 17.0581 7.4244 17.8517 9.04091 18.1733C10.6574 18.4948 12.333 18.3298 13.8557 17.6991C15.3784 17.0683 16.6799 16.0002 17.5956 14.6298C18.5112 13.2594 19 11.6483 19 10.0001C19 8.90573 18.7844 7.8221 18.3657 6.81105C17.9469 5.80001 17.333 4.88135 16.5592 4.10752C15.7854 3.3337 14.8667 2.71987 13.8557 2.30109C12.8446 1.8823 11.761 1.66675 10.6667 1.66675ZM10.6667 16.6667C9.34812 16.6667 8.05918 16.2758 6.96286 15.5432C5.86653 14.8107 5.01204 13.7695 4.50746 12.5513C4.00288 11.3331 3.87085 9.99269 4.12809 8.69948C4.38532 7.40627 5.02026 6.21839 5.95261 5.28604C6.88496 4.35369 8.07285 3.71875 9.36606 3.46151C10.6593 3.20428 11.9997 3.3363 13.2179 3.84088C14.4361 4.34547 15.4772 5.19995 16.2098 6.29628C16.9423 7.39261 17.3333 8.68154 17.3333 10.0001C17.3333 11.7682 16.6309 13.4639 15.3807 14.7141C14.1305 15.9644 12.4348 16.6667 10.6667 16.6667ZM13.25 10.5251L11.5 9.51675V5.83342C11.5 5.6124 11.4122 5.40044 11.2559 5.24416C11.0996 5.08788 10.8877 5.00008 10.6667 5.00008C10.4456 5.00008 10.2337 5.08788 10.0774 5.24416C9.92112 5.40044 9.83332 5.6124 9.83332 5.83342V10.0001C9.83332 10.0001 9.83332 10.0667 9.83332 10.1001C9.83826 10.1575 9.85232 10.2138 9.87499 10.2667C9.89215 10.3162 9.9145 10.3637 9.94166 10.4084C9.96446 10.4558 9.99241 10.5005 10.025 10.5417L10.1583 10.6501L10.2333 10.7251L12.4 11.9751C12.527 12.0471 12.6707 12.0844 12.8167 12.0834C13.0012 12.0847 13.1809 12.0247 13.3276 11.9129C13.4744 11.801 13.5799 11.6436 13.6275 11.4654C13.6752 11.2871 13.6624 11.0981 13.591 10.9279C13.5197 10.7577 13.3939 10.6161 13.2333 10.5251H13.25Z" fill="#00A9DE"/>
</svg>
