<svg width="21" height="20" viewBox="0 0 21 20" fill="none" xmlns="http://www.w3.org/2000/svg">
<path d="M10.3333 1.66675C8.68513 1.66675 7.07396 2.15549 5.70355 3.07117C4.33314 3.98685 3.26504 5.28834 2.63431 6.81105C2.00358 8.33377 1.83855 10.0093 2.1601 11.6258C2.48164 13.2423 3.27531 14.7272 4.44075 15.8926C5.60619 17.0581 7.09105 17.8517 8.70755 18.1733C10.3241 18.4948 11.9996 18.3298 13.5223 17.6991C15.0451 17.0683 16.3465 16.0002 17.2622 14.6298C18.1779 13.2594 18.6666 11.6483 18.6666 10.0001C18.6666 8.90573 18.4511 7.8221 18.0323 6.81105C17.6135 5.80001 16.9997 4.88135 16.2259 4.10752C15.452 3.3337 14.5334 2.71987 13.5223 2.30109C12.5113 1.8823 11.4277 1.66675 10.3333 1.66675ZM10.3333 16.6667C9.01476 16.6667 7.72583 16.2758 6.6295 15.5432C5.53318 14.8107 4.67869 13.7695 4.17411 12.5513C3.66953 11.3331 3.5375 9.99269 3.79474 8.69948C4.05197 7.40627 4.68691 6.21839 5.61926 5.28604C6.55161 4.35369 7.7395 3.71875 9.0327 3.46151C10.3259 3.20428 11.6664 3.3363 12.8845 3.84088C14.1027 4.34547 15.1439 5.19995 15.8764 6.29628C16.609 7.39261 17 8.68154 17 10.0001C17 11.7682 16.2976 13.4639 15.0474 14.7141C13.7971 15.9644 12.1014 16.6667 10.3333 16.6667ZM12.9166 10.5251L11.1666 9.51675V5.83342C11.1666 5.6124 11.0788 5.40044 10.9226 5.24416C10.7663 5.08788 10.5543 5.00008 10.3333 5.00008C10.1123 5.00008 9.90033 5.08788 9.74405 5.24416C9.58777 5.40044 9.49997 5.6124 9.49997 5.83342V10.0001C9.49997 10.0001 9.49997 10.0667 9.49997 10.1001C9.50491 10.1575 9.51897 10.2138 9.54164 10.2667C9.5588 10.3162 9.58115 10.3637 9.60831 10.4084C9.63111 10.4558 9.65906 10.5005 9.69164 10.5417L9.82497 10.6501L9.89997 10.7251L12.0666 11.9751C12.1936 12.0471 12.3373 12.0844 12.4833 12.0834C12.6678 12.0847 12.8475 12.0247 12.9943 11.9129C13.141 11.801 13.2465 11.6436 13.2942 11.4654C13.3418 11.2871 13.329 11.0981 13.2577 10.9279C13.1863 10.7577 13.0605 10.6161 12.9 10.5251H12.9166Z" fill="#FF9900"/>
</svg>
