<svg width="20" height="20" viewBox="0 0 20 20" fill="none" xmlns="http://www.w3.org/2000/svg">
<path d="M6.66668 9.16675C6.50186 9.16675 6.34074 9.21562 6.2037 9.30719C6.06666 9.39876 5.95985 9.52891 5.89678 9.68118C5.8337 9.83345 5.8172 10.001 5.84936 10.1627C5.88151 10.3243 5.96088 10.4728 6.07742 10.5893C6.19397 10.7059 6.34245 10.7852 6.5041 10.8174C6.66575 10.8496 6.83331 10.8331 6.98558 10.77C7.13785 10.7069 7.268 10.6001 7.35957 10.4631C7.45114 10.326 7.50001 10.1649 7.50001 10.0001C7.50001 9.77907 7.41221 9.56711 7.25593 9.41083C7.09965 9.25455 6.88769 9.16675 6.66668 9.16675ZM10 9.16675C9.83519 9.16675 9.67408 9.21562 9.53703 9.30719C9.39999 9.39876 9.29318 9.52891 9.23011 9.68118C9.16704 9.83345 9.15054 10.001 9.18269 10.1627C9.21484 10.3243 9.29421 10.4728 9.41076 10.5893C9.5273 10.7059 9.67578 10.7852 9.83744 10.8174C9.99909 10.8496 10.1666 10.8331 10.3189 10.77C10.4712 10.7069 10.6013 10.6001 10.6929 10.4631C10.7845 10.326 10.8333 10.1649 10.8333 10.0001C10.8333 9.77907 10.7455 9.56711 10.5893 9.41083C10.433 9.25455 10.221 9.16675 10 9.16675ZM13.3333 9.16675C13.1685 9.16675 13.0074 9.21562 12.8704 9.30719C12.7333 9.39876 12.6265 9.52891 12.5634 9.68118C12.5004 9.83345 12.4839 10.001 12.516 10.1627C12.5482 10.3243 12.6275 10.4728 12.7441 10.5893C12.8606 10.7059 13.0091 10.7852 13.1708 10.8174C13.3324 10.8496 13.5 10.8331 13.6522 10.77C13.8045 10.7069 13.9347 10.6001 14.0262 10.4631C14.1178 10.326 14.1667 10.1649 14.1667 10.0001C14.1667 9.77907 14.0789 9.56711 13.9226 9.41083C13.7663 9.25455 13.5544 9.16675 13.3333 9.16675ZM10 1.66675C8.90566 1.66675 7.82203 1.8823 6.81098 2.30109C5.79993 2.71987 4.88128 3.3337 4.10745 4.10752C2.54465 5.67033 1.66668 7.78994 1.66668 10.0001C1.65939 11.9244 2.32567 13.7905 3.55001 15.2751L1.88334 16.9417C1.76771 17.0589 1.68938 17.2077 1.65824 17.3694C1.62709 17.5311 1.64453 17.6983 1.70834 17.8501C1.77756 18 1.88976 18.126 2.03072 18.2121C2.17167 18.2981 2.33501 18.3404 2.50001 18.3334H10C12.2101 18.3334 14.3298 17.4554 15.8926 15.8926C17.4554 14.3298 18.3333 12.2102 18.3333 10.0001C18.3333 7.78994 17.4554 5.67033 15.8926 4.10752C14.3298 2.54472 12.2101 1.66675 10 1.66675ZM10 16.6667H4.50834L5.28334 15.8917C5.36208 15.8146 5.42473 15.7225 5.46764 15.621C5.51055 15.5194 5.53289 15.4103 5.53334 15.3001C5.53021 15.0803 5.44036 14.8706 5.28334 14.7167C4.19217 13.6268 3.51266 12.1922 3.36059 10.6574C3.20852 9.12262 3.5933 7.58259 4.44937 6.29968C5.30544 5.01678 6.57984 4.07038 8.05544 3.62173C9.53104 3.17307 11.1166 3.24992 12.5419 3.83918C13.9672 4.42843 15.1441 5.49364 15.872 6.85332C16.6 8.213 16.8341 9.78303 16.5343 11.2959C16.2345 12.8088 15.4194 14.171 14.228 15.1503C13.0365 16.1296 11.5423 16.6655 10 16.6667Z" fill="black"/>
</svg>
