<svg width="22" height="22" viewBox="0 0 22 22" fill="none" xmlns="http://www.w3.org/2000/svg">
<path d="M16.5 16.4999C16.2569 16.4999 16.0237 16.5965 15.8518 16.7684C15.6799 16.9403 15.5833 17.1735 15.5833 17.4166C15.5833 17.6597 15.4868 17.8929 15.3148 18.0648C15.1429 18.2367 14.9098 18.3333 14.6667 18.3333H5.5C5.25688 18.3333 5.02373 18.2367 4.85182 18.0648C4.67991 17.8929 4.58333 17.6597 4.58333 17.4166V4.58325C4.58333 4.34014 4.67991 4.10698 4.85182 3.93507C5.02373 3.76316 5.25688 3.66659 5.5 3.66659H10.0833V6.41658C10.0833 7.14593 10.3731 7.8454 10.8888 8.36113C11.4045 8.87685 12.104 9.16658 12.8333 9.16658H15.5833V10.0833C15.5833 10.3264 15.6799 10.5595 15.8518 10.7314C16.0237 10.9033 16.2569 10.9999 16.5 10.9999C16.7431 10.9999 16.9763 10.9033 17.1482 10.7314C17.3201 10.5595 17.4167 10.3264 17.4167 10.0833V8.24992C17.4167 8.24992 17.4167 8.24992 17.4167 8.19492C17.4071 8.11071 17.3887 8.02775 17.3617 7.94742C17.3656 7.92006 17.3656 7.89228 17.3617 7.86492C17.3176 7.77067 17.2588 7.68403 17.1875 7.60825L11.6875 2.10825C11.6117 2.03695 11.5251 1.97816 11.4308 1.93409H11.3392C11.2527 1.88773 11.1601 1.85379 11.0642 1.83325H5.5C4.77065 1.83325 4.07118 2.12298 3.55546 2.63871C3.03973 3.15443 2.75 3.85391 2.75 4.58325V17.4166C2.75 18.1459 3.03973 18.8454 3.55546 19.3611C4.07118 19.8769 4.77065 20.1666 5.5 20.1666H14.6667C15.396 20.1666 16.0955 19.8769 16.6112 19.3611C17.1269 18.8454 17.4167 18.1459 17.4167 17.4166C17.4167 17.1735 17.3201 16.9403 17.1482 16.7684C16.9763 16.5965 16.7431 16.4999 16.5 16.4999ZM11.9167 4.95908L14.2908 7.33325H12.8333C12.5902 7.33325 12.3571 7.23667 12.1852 7.06477C12.0132 6.89286 11.9167 6.6597 11.9167 6.41658V4.95908ZM18.3333 12.8333H16.0417C15.921 12.8326 15.8014 12.8557 15.6898 12.9013C15.5781 12.9469 15.4765 13.0141 15.3908 13.0991L14.2542 14.2449L11.6875 11.3116C11.6049 11.217 11.5038 11.1404 11.3904 11.0865C11.277 11.0326 11.1538 11.0025 11.0283 10.9982C10.9028 10.9939 10.7778 11.0155 10.6609 11.0615C10.5441 11.1075 10.438 11.177 10.3492 11.2658L8.79083 12.8333H7.33333C7.09022 12.8333 6.85706 12.9298 6.68515 13.1017C6.51324 13.2736 6.41667 13.5068 6.41667 13.7499C6.41667 13.993 6.51324 14.2262 6.68515 14.3981C6.85706 14.57 7.09022 14.6666 7.33333 14.6666H9.16667C9.28731 14.6673 9.4069 14.6442 9.51858 14.5985C9.63027 14.5529 9.73185 14.4857 9.8175 14.4008L11 13.2549L13.5667 16.1883C13.6495 16.2826 13.7508 16.359 13.8643 16.4126C13.9778 16.4662 14.1012 16.4959 14.2267 16.4999C14.3473 16.5006 14.4669 16.4775 14.5786 16.4319C14.6903 16.3863 14.7918 16.319 14.8775 16.2341L16.4175 14.6666H18.3333C18.5764 14.6666 18.8096 14.57 18.9815 14.3981C19.1534 14.2262 19.25 13.993 19.25 13.7499C19.25 13.5068 19.1534 13.2736 18.9815 13.1017C18.8096 12.9298 18.5764 12.8333 18.3333 12.8333Z" fill="white" fill-opacity="0.4"/>
</svg>
