<svg width="20" height="20" viewBox="0 0 20 20" fill="none" xmlns="http://www.w3.org/2000/svg">
<path d="M17.5 5H2.49999C2.27898 5 2.06701 5.0878 1.91073 5.24408C1.75445 5.40036 1.66666 5.61232 1.66666 5.83333C1.66666 6.05435 1.75445 6.26631 1.91073 6.42259C2.06701 6.57887 2.27898 6.66667 2.49999 6.66667H17.5C17.721 6.66667 17.933 6.57887 18.0892 6.42259C18.2455 6.26631 18.3333 6.05435 18.3333 5.83333C18.3333 5.61232 18.2455 5.40036 18.0892 5.24408C17.933 5.0878 17.721 5 17.5 5Z" fill="#959595"/>
<path d="M5.83333 9.16675H14.1667C14.3877 9.16675 14.5996 9.25455 14.7559 9.41083C14.9122 9.56711 15 9.77907 15 10.0001C15 10.2211 14.9122 10.4331 14.7559 10.5893C14.5996 10.7456 14.3877 10.8334 14.1667 10.8334H5.83333C5.61232 10.8334 5.40036 10.7456 5.24408 10.5893C5.0878 10.4331 5 10.2211 5 10.0001C5 9.77907 5.0878 9.56711 5.24408 9.41083C5.40036 9.25455 5.61232 9.16675 5.83333 9.16675Z" fill="#959595"/>
<path d="M8.33333 13.3333H11.9107C12.1318 13.3333 12.3437 13.421 12.5 13.5773C12.6563 13.7336 12.7441 13.9456 12.7441 14.1666C12.7441 14.3876 12.6563 14.5996 12.5 14.7558C12.3437 14.9121 12.1318 14.9999 11.9107 14.9999H8.33333C8.11232 14.9999 7.90036 14.9121 7.74408 14.7558C7.5878 14.5996 7.5 14.3876 7.5 14.1666C7.5 13.9456 7.5878 13.7336 7.74408 13.5773C7.90036 13.421 8.11232 13.3333 8.33333 13.3333Z" fill="#959595"/>
</svg>
