<svg width="20" height="20" viewBox="0 0 20 20" fill="none" xmlns="http://www.w3.org/2000/svg">
<g opacity="0.6">
<path d="M18.9833 8.64169C18.9049 8.545 18.8058 8.46712 18.6933 8.41376C18.5808 8.36041 18.4578 8.33293 18.3333 8.33335H16.6666V7.50002C16.6666 6.83698 16.4033 6.20109 15.9344 5.73225C15.4656 5.26341 14.8297 5.00002 14.1666 5.00002H8.93331L8.66665 4.16669C8.49377 3.67771 8.1731 3.2546 7.74906 2.95599C7.32502 2.65737 6.81861 2.49802 6.29998 2.50002H3.33331C2.67027 2.50002 2.03439 2.76341 1.56555 3.23225C1.09671 3.70109 0.833313 4.33698 0.833313 5.00002V15C0.833313 15.6631 1.09671 16.2989 1.56555 16.7678C2.03439 17.2366 2.67027 17.5 3.33331 17.5H15.3333C15.901 17.4984 16.4512 17.3036 16.8935 16.9476C17.3357 16.5917 17.6437 16.0959 17.7666 15.5417L19.1666 9.35002C19.192 9.22578 19.1886 9.0974 19.1569 8.97466C19.1251 8.85191 19.0657 8.73803 18.9833 8.64169ZM4.47498 15.1834C4.43264 15.3713 4.32647 15.5388 4.17453 15.6574C4.02259 15.7759 3.83428 15.8381 3.64165 15.8334H3.33331C3.1123 15.8334 2.90034 15.7456 2.74406 15.5893C2.58778 15.433 2.49998 15.221 2.49998 15V5.00002C2.49998 4.779 2.58778 4.56704 2.74406 4.41076C2.90034 4.25448 3.1123 4.16669 3.33331 4.16669H6.29998C6.4817 4.1572 6.66153 4.20746 6.81201 4.30978C6.96248 4.4121 7.07533 4.56087 7.13331 4.73335L7.58331 6.10002C7.63679 6.25897 7.73698 6.39809 7.87079 6.49919C8.0046 6.60029 8.1658 6.65867 8.33331 6.66669H14.1666C14.3877 6.66669 14.5996 6.75448 14.7559 6.91076C14.9122 7.06704 15 7.27901 15 7.50002V8.33335H6.66665C6.47401 8.32864 6.2857 8.39084 6.13376 8.50935C5.98182 8.62786 5.87565 8.79537 5.83331 8.98335L4.47498 15.1834ZM16.1416 15.1834C16.0993 15.3713 15.9931 15.5388 15.8412 15.6574C15.6893 15.7759 15.5009 15.8381 15.3083 15.8334H6.00831C6.05135 15.7405 6.08216 15.6425 6.09998 15.5417L7.33331 10H17.3333L16.1416 15.1834Z" fill="white"/>
</g>
</svg>
