<svg width="22" height="22" viewBox="0 0 22 22" fill="none" xmlns="http://www.w3.org/2000/svg">
<path d="M18.3334 7.33322L12.8334 2.51155C12.3292 2.06059 11.6765 1.81128 11 1.81128C10.3236 1.81128 9.67088 2.06059 9.16669 2.51155L3.66669 7.33322C3.37553 7.59362 3.14318 7.91306 2.98513 8.27027C2.82707 8.62749 2.74692 9.01428 2.75003 9.40488V17.4166C2.75003 18.1459 3.03976 18.8454 3.55548 19.3611C4.07121 19.8768 4.77068 20.1665 5.50003 20.1665H16.5C17.2294 20.1665 17.9288 19.8768 18.4446 19.3611C18.9603 18.8454 19.25 18.1459 19.25 17.4166V9.39572C19.2518 9.00665 19.1711 8.62163 19.013 8.26609C18.855 7.91055 18.6234 7.59259 18.3334 7.33322ZM12.8334 18.3332H9.16669V13.7499C9.16669 13.5068 9.26327 13.2736 9.43518 13.1017C9.60709 12.9298 9.84024 12.8332 10.0834 12.8332H11.9167C12.1598 12.8332 12.393 12.9298 12.5649 13.1017C12.7368 13.2736 12.8334 13.5068 12.8334 13.7499V18.3332ZM17.4167 17.4166C17.4167 17.6597 17.3201 17.8928 17.1482 18.0647C16.9763 18.2366 16.7431 18.3332 16.5 18.3332H14.6667V13.7499C14.6667 13.0205 14.377 12.3211 13.8612 11.8053C13.3455 11.2896 12.646 10.9999 11.9167 10.9999H10.0834C9.35401 10.9999 8.65454 11.2896 8.13882 11.8053C7.62309 12.3211 7.33336 13.0205 7.33336 13.7499V18.3332H5.50003C5.25691 18.3332 5.02375 18.2366 4.85185 18.0647C4.67994 17.8928 4.58336 17.6597 4.58336 17.4166V9.39572C4.58352 9.26556 4.6114 9.13694 4.66514 9.0184C4.71888 8.89986 4.79725 8.79412 4.89503 8.70822L10.395 3.89572C10.5623 3.74876 10.7774 3.66771 11 3.66771C11.2227 3.66771 11.4377 3.74876 11.605 3.89572L17.105 8.70822C17.2028 8.79412 17.2812 8.89986 17.3349 9.0184C17.3886 9.13694 17.4165 9.26556 17.4167 9.39572V17.4166Z" fill="white"/>
</svg>
