<svg width="20" height="20" viewBox="0 0 20 20" fill="none" xmlns="http://www.w3.org/2000/svg">
<path d="M2.91666 5C2.75184 5 2.59073 5.04887 2.45369 5.14044C2.31665 5.23201 2.20984 5.36216 2.14676 5.51443C2.08369 5.6667 2.06719 5.83426 2.09934 5.99591C2.1315 6.15756 2.21086 6.30604 2.32741 6.42259C2.44395 6.53913 2.59244 6.6185 2.75409 6.65065C2.91574 6.68281 3.08329 6.66631 3.23557 6.60323C3.38784 6.54016 3.51799 6.43335 3.60955 6.29631C3.70112 6.15927 3.75 5.99815 3.75 5.83333C3.75 5.61232 3.6622 5.40036 3.50592 5.24408C3.34964 5.0878 3.13768 5 2.91666 5ZM6.25 6.66667H17.9167C18.1377 6.66667 18.3496 6.57887 18.5059 6.42259C18.6622 6.26631 18.75 6.05435 18.75 5.83333C18.75 5.61232 18.6622 5.40036 18.5059 5.24408C18.3496 5.0878 18.1377 5 17.9167 5H6.25C6.02898 5 5.81702 5.0878 5.66074 5.24408C5.50446 5.40036 5.41666 5.61232 5.41666 5.83333C5.41666 6.05435 5.50446 6.26631 5.66074 6.42259C5.81702 6.57887 6.02898 6.66667 6.25 6.66667ZM6.25 9.16667C6.08518 9.16667 5.92406 9.21554 5.78702 9.30711C5.64998 9.39868 5.54317 9.52882 5.4801 9.6811C5.41702 9.83337 5.40052 10.0009 5.43267 10.1626C5.46483 10.3242 5.5442 10.4727 5.66074 10.5893C5.77728 10.7058 5.92577 10.7852 6.08742 10.8173C6.24907 10.8495 6.41663 10.833 6.5689 10.7699C6.72117 10.7068 6.85132 10.6 6.94289 10.463C7.03445 10.3259 7.08333 10.1648 7.08333 10C7.08333 9.77899 6.99553 9.56702 6.83925 9.41074C6.68297 9.25446 6.47101 9.16667 6.25 9.16667ZM9.58333 13.3333C9.41851 13.3333 9.25739 13.3822 9.12035 13.4738C8.98331 13.5653 8.8765 13.6955 8.81343 13.8478C8.75036 14 8.73385 14.1676 8.76601 14.3292C8.79816 14.4909 8.87753 14.6394 8.99407 14.7559C9.11062 14.8725 9.2591 14.9518 9.42075 14.984C9.58241 15.0161 9.74996 14.9996 9.90223 14.9366C10.0545 14.8735 10.1847 14.7667 10.2762 14.6296C10.3678 14.4926 10.4167 14.3315 10.4167 14.1667C10.4167 13.9457 10.3289 13.7337 10.1726 13.5774C10.0163 13.4211 9.80434 13.3333 9.58333 13.3333ZM17.9167 9.16667H9.58333C9.36232 9.16667 9.15035 9.25446 8.99407 9.41074C8.83779 9.56702 8.75 9.77899 8.75 10C8.75 10.221 8.83779 10.433 8.99407 10.5893C9.15035 10.7455 9.36232 10.8333 9.58333 10.8333H17.9167C18.1377 10.8333 18.3496 10.7455 18.5059 10.5893C18.6622 10.433 18.75 10.221 18.75 10C18.75 9.77899 18.6622 9.56702 18.5059 9.41074C18.3496 9.25446 18.1377 9.16667 17.9167 9.16667ZM17.9167 13.3333H12.9167C12.6956 13.3333 12.4837 13.4211 12.3274 13.5774C12.1711 13.7337 12.0833 13.9457 12.0833 14.1667C12.0833 14.3877 12.1711 14.5996 12.3274 14.7559C12.4837 14.9122 12.6956 15 12.9167 15H17.9167C18.1377 15 18.3496 14.9122 18.5059 14.7559C18.6622 14.5996 18.75 14.3877 18.75 14.1667C18.75 13.9457 18.6622 13.7337 18.5059 13.5774C18.3496 13.4211 18.1377 13.3333 17.9167 13.3333Z" fill="#959595"/>
</svg>
