<svg width="20" height="20" viewBox="0 0 20 20" fill="none" xmlns="http://www.w3.org/2000/svg">
<path fill-rule="evenodd" clip-rule="evenodd" d="M9.99996 0.833252C8.45287 0.833252 6.96914 1.44783 5.87517 2.5418C4.78121 3.63576 4.16663 5.11949 4.16663 6.66659C4.16663 9.46047 3.56907 11.1954 3.01838 12.205C2.74189 12.712 2.47265 13.0445 2.28563 13.2419C2.1919 13.3408 2.11824 13.4064 2.0739 13.4434C2.05171 13.4619 2.03684 13.4732 2.03042 13.478L2.02804 13.4798C1.7293 13.685 1.5971 14.0603 1.70239 14.4081C1.8088 14.7595 2.13274 14.9999 2.49996 14.9999H17.5C17.8672 14.9999 18.1911 14.7595 18.2975 14.4081C18.4028 14.0603 18.2706 13.685 17.9719 13.4798L17.9695 13.478C17.9631 13.4732 17.9482 13.4619 17.926 13.4434C17.8817 13.4064 17.808 13.3408 17.7143 13.2419C17.5273 13.0445 17.258 12.712 16.9815 12.205C16.4309 11.1954 15.8333 9.46047 15.8333 6.66659C15.8333 5.11949 15.2187 3.63576 14.1248 2.5418C13.0308 1.44783 11.5471 0.833252 9.99996 0.833252ZM15.5184 13.0031C15.5818 13.1194 15.6455 13.2294 15.7089 13.3333H4.29107C4.35447 13.2294 4.41813 13.1194 4.48154 13.0031C5.18085 11.7211 5.8333 9.70604 5.8333 6.66659C5.8333 5.56152 6.27228 4.50171 7.05369 3.72031C7.83509 2.93891 8.8949 2.49992 9.99996 2.49992C11.105 2.49992 12.1648 2.93891 12.9462 3.72031C13.7276 4.50171 14.1666 5.56152 14.1666 6.66659C14.1666 9.70604 14.8191 11.7211 15.5184 13.0031ZM9.27914 17.0818C9.04821 16.6837 8.53827 16.5482 8.14017 16.7791C7.74206 17.0101 7.60654 17.52 7.83748 17.9181C8.05724 18.2969 8.37267 18.6114 8.75219 18.83C9.13171 19.0486 9.562 19.1637 9.99998 19.1637C10.4379 19.1637 10.8682 19.0486 11.2478 18.83C11.6273 18.6114 11.9427 18.2969 12.1625 17.9181C12.3934 17.52 12.2579 17.0101 11.8598 16.7791C11.4617 16.5482 10.9517 16.6837 10.7208 17.0818C10.6476 17.2081 10.5424 17.3129 10.4159 17.3858C10.2894 17.4586 10.146 17.497 9.99998 17.497C9.85398 17.497 9.71055 17.4586 9.58405 17.3858C9.45754 17.3129 9.3524 17.2081 9.27914 17.0818Z" fill="black"/>
</svg>
