<svg width="21" height="20" viewBox="0 0 21 20" fill="none" xmlns="http://www.w3.org/2000/svg">
<path d="M15.4 10.3499L10.25 15.5082C9.57482 16.1082 8.69592 16.4276 7.79307 16.401C6.89022 16.3744 6.03164 16.0039 5.39295 15.3652C4.75426 14.7265 4.38373 13.8679 4.35715 12.9651C4.33057 12.0622 4.64996 11.1833 5.24997 10.5082L11.9166 3.84152C12.3147 3.46343 12.8427 3.25263 13.3916 3.25263C13.9406 3.25263 14.4686 3.46343 14.8666 3.84152C15.2544 4.23451 15.4719 4.76441 15.4719 5.31652C15.4719 5.86863 15.2544 6.39853 14.8666 6.79152L9.11664 12.5332C9.05973 12.5945 8.99131 12.6439 8.91528 12.6788C8.83926 12.7136 8.75711 12.7332 8.67354 12.7362C8.58997 12.7393 8.5066 12.7259 8.42821 12.6968C8.34981 12.6677 8.27792 12.6234 8.21664 12.5665C8.15535 12.5096 8.10588 12.4412 8.07104 12.3652C8.03619 12.2891 8.01667 12.207 8.01357 12.1234C8.01048 12.0398 8.02387 11.9565 8.053 11.8781C8.08212 11.7997 8.1264 11.7278 8.1833 11.6665L12.4583 7.39985C12.6152 7.24293 12.7034 7.0301 12.7034 6.80818C12.7034 6.58627 12.6152 6.37344 12.4583 6.21652C12.3014 6.0596 12.0886 5.97144 11.8666 5.97144C11.6447 5.97144 11.4319 6.0596 11.275 6.21652L6.99997 10.4999C6.78606 10.7121 6.61628 10.9646 6.50041 11.2428C6.38455 11.521 6.3249 11.8193 6.3249 12.1207C6.3249 12.422 6.38455 12.7204 6.50041 12.9986C6.61628 13.2768 6.78606 13.5293 6.99997 13.7415C7.43695 14.1578 8.01731 14.3899 8.6208 14.3899C9.2243 14.3899 9.80466 14.1578 10.2416 13.7415L15.9833 7.99152C16.6457 7.28064 17.0063 6.34041 16.9892 5.36891C16.972 4.3974 16.5785 3.47047 15.8914 2.78341C15.2043 2.09634 14.2774 1.70278 13.3059 1.68564C12.3344 1.6685 11.3942 2.02912 10.6833 2.69152L4.01664 9.35818C3.11764 10.3539 2.63749 11.6581 2.67625 12.999C2.715 14.3399 3.26966 15.6142 4.22467 16.5563C5.17967 17.4984 6.46137 18.0357 7.80271 18.0563C9.14405 18.0768 10.4416 17.579 11.425 16.6665L16.5833 11.5165C16.661 11.4388 16.7226 11.3466 16.7647 11.2451C16.8067 11.1435 16.8284 11.0347 16.8284 10.9249C16.8284 10.815 16.8067 10.7062 16.7647 10.6046C16.7226 10.5031 16.661 10.4109 16.5833 10.3332C16.5056 10.2555 16.4134 10.1939 16.3118 10.1518C16.2103 10.1098 16.1015 10.0881 15.9916 10.0881C15.8818 10.0881 15.7729 10.1098 15.6714 10.1518C15.5699 10.1939 15.4777 10.2555 15.4 10.3332V10.3499Z" fill="#A7A7A7"/>
</svg>
