<svg width="20" height="20" viewBox="0 0 20 20" fill="none" xmlns="http://www.w3.org/2000/svg">
<path d="M15.0667 10.3501L9.91666 15.5084C9.2415 16.1084 8.36261 16.4278 7.45976 16.4012C6.55691 16.3747 5.69832 16.0041 5.05963 15.3655C4.42094 14.7268 4.05042 13.8682 4.02384 12.9653C3.99726 12.0625 4.31664 11.1836 4.91666 10.5084L11.5833 3.84176C11.9813 3.46368 12.5094 3.25287 13.0583 3.25287C13.6073 3.25287 14.1353 3.46368 14.5333 3.84176C14.9211 4.23475 15.1385 4.76465 15.1385 5.31676C15.1385 5.86887 14.9211 6.39877 14.5333 6.79176L8.78332 12.5334C8.72642 12.5947 8.658 12.6442 8.58197 12.679C8.50594 12.7139 8.4238 12.7334 8.34023 12.7365C8.25665 12.7396 8.17329 12.7262 8.09489 12.6971C8.0165 12.6679 7.94461 12.6237 7.88332 12.5668C7.82204 12.5099 7.77256 12.4414 7.73772 12.3654C7.70288 12.2894 7.68336 12.2072 7.68026 12.1237C7.67717 12.0401 7.69056 11.9567 7.71968 11.8783C7.74881 11.7999 7.79308 11.728 7.84999 11.6668L12.125 7.4001C12.2819 7.24318 12.3701 7.03035 12.3701 6.80843C12.3701 6.58651 12.2819 6.37368 12.125 6.21676C11.9681 6.05984 11.7552 5.97169 11.5333 5.97169C11.3114 5.97169 11.0986 6.05984 10.9417 6.21676L6.66666 10.5001C6.45274 10.7123 6.28296 10.9648 6.1671 11.243C6.05124 11.5212 5.99159 11.8196 5.99159 12.1209C5.99159 12.4223 6.05124 12.7206 6.1671 12.9988C6.28296 13.277 6.45274 13.5295 6.66666 13.7418C7.10363 14.158 7.684 14.3902 8.28749 14.3902C8.89098 14.3902 9.47135 14.158 9.90832 13.7418L15.65 7.99176C16.3124 7.28089 16.673 6.34065 16.6559 5.36915C16.6387 4.39764 16.2452 3.47072 15.5581 2.78365C14.871 2.09659 13.9441 1.70303 12.9726 1.68589C12.0011 1.66875 11.0609 2.02936 10.35 2.69176L3.68332 9.35843C2.78432 10.3541 2.30418 11.6583 2.34294 12.9992C2.38169 14.3402 2.93635 15.6145 3.89136 16.5566C4.84636 17.4987 6.12805 18.036 7.46939 18.0565C8.81073 18.077 10.1083 17.5792 11.0917 16.6668L16.25 11.5168C16.3277 11.4391 16.3893 11.3468 16.4314 11.2453C16.4734 11.1438 16.4951 11.035 16.4951 10.9251C16.4951 10.8152 16.4734 10.7064 16.4314 10.6049C16.3893 10.5034 16.3277 10.4111 16.25 10.3334C16.1723 10.2557 16.08 10.1941 15.9785 10.152C15.877 10.11 15.7682 10.0884 15.6583 10.0884C15.5484 10.0884 15.4396 10.11 15.3381 10.152C15.2366 10.1941 15.1444 10.2557 15.0667 10.3334V10.3501Z" fill="#A7A7A7"/>
</svg>
