<svg width="21" height="20" viewBox="0 0 21 20" fill="none" xmlns="http://www.w3.org/2000/svg">
<path d="M15.7333 10.3499L10.5833 15.5082C9.90817 16.1082 9.02927 16.4276 8.12642 16.401C7.22357 16.3744 6.36499 16.0039 5.7263 15.3652C5.08761 14.7265 4.71708 13.8679 4.6905 12.9651C4.66392 12.0622 4.98331 11.1833 5.58332 10.5082L12.25 3.84152C12.648 3.46343 13.176 3.25263 13.725 3.25263C14.274 3.25263 14.802 3.46343 15.2 3.84152C15.5878 4.23451 15.8052 4.76441 15.8052 5.31652C15.8052 5.86863 15.5878 6.39853 15.2 6.79152L9.44999 12.5332C9.39308 12.5945 9.32466 12.6439 9.24863 12.6788C9.17261 12.7136 9.09046 12.7332 9.00689 12.7362C8.92332 12.7393 8.83995 12.7259 8.76156 12.6968C8.68316 12.6677 8.61127 12.6234 8.54999 12.5665C8.4887 12.5096 8.43923 12.4412 8.40439 12.3652C8.36955 12.2891 8.35002 12.207 8.34692 12.1234C8.34383 12.0398 8.35722 11.9565 8.38635 11.8781C8.41547 11.7997 8.45975 11.7278 8.51665 11.6665L12.7917 7.39985C12.9486 7.24293 13.0367 7.0301 13.0367 6.80818C13.0367 6.58627 12.9486 6.37344 12.7917 6.21652C12.6347 6.0596 12.4219 5.97144 12.2 5.97144C11.9781 5.97144 11.7652 6.0596 11.6083 6.21652L7.33332 10.4999C7.11941 10.7121 6.94963 10.9646 6.83376 11.2428C6.7179 11.521 6.65825 11.8193 6.65825 12.1207C6.65825 12.422 6.7179 12.7204 6.83376 12.9986C6.94963 13.2768 7.11941 13.5293 7.33332 13.7415C7.7703 14.1578 8.35066 14.3899 8.95415 14.3899C9.55765 14.3899 10.138 14.1578 10.575 13.7415L16.3167 7.99152C16.9791 7.28064 17.3397 6.34041 17.3225 5.36891C17.3054 4.3974 16.9118 3.47047 16.2248 2.78341C15.5377 2.09634 14.6108 1.70278 13.6393 1.68564C12.6678 1.6685 11.7275 2.02912 11.0167 2.69152L4.34999 9.35818C3.45099 10.3539 2.97085 11.6581 3.0096 12.999C3.04835 14.3399 3.60302 15.6142 4.55802 16.5563C5.51303 17.4984 6.79472 18.0357 8.13606 18.0563C9.4774 18.0768 10.7749 17.579 11.7583 16.6665L16.9167 11.5165C16.9944 11.4388 17.056 11.3466 17.098 11.2451C17.1401 11.1435 17.1617 11.0347 17.1617 10.9249C17.1617 10.815 17.1401 10.7062 17.098 10.6046C17.056 10.5031 16.9944 10.4109 16.9167 10.3332C16.839 10.2555 16.7467 10.1939 16.6452 10.1518C16.5437 10.1098 16.4349 10.0881 16.325 10.0881C16.2151 10.0881 16.1063 10.1098 16.0048 10.1518C15.9033 10.1939 15.811 10.2555 15.7333 10.3332V10.3499Z" fill="#A7A7A7"/>
</svg>
