<svg width="21" height="20" viewBox="0 0 21 20" fill="none" xmlns="http://www.w3.org/2000/svg">
<path d="M15.4 10.3501L10.25 15.5084C9.57482 16.1084 8.69592 16.4278 7.79307 16.4012C6.89022 16.3747 6.03164 16.0041 5.39295 15.3655C4.75426 14.7268 4.38373 13.8682 4.35715 12.9653C4.33057 12.0625 4.64996 11.1836 5.24997 10.5084L11.9166 3.84176C12.3147 3.46368 12.8427 3.25287 13.3916 3.25287C13.9406 3.25287 14.4686 3.46368 14.8666 3.84176C15.2544 4.23475 15.4719 4.76465 15.4719 5.31676C15.4719 5.86887 15.2544 6.39877 14.8666 6.79176L9.11664 12.5334C9.05973 12.5947 8.99131 12.6442 8.91528 12.679C8.83926 12.7139 8.75711 12.7334 8.67354 12.7365C8.58997 12.7396 8.5066 12.7262 8.42821 12.6971C8.34981 12.6679 8.27792 12.6237 8.21664 12.5668C8.15535 12.5099 8.10588 12.4414 8.07104 12.3654C8.03619 12.2894 8.01667 12.2072 8.01357 12.1237C8.01048 12.0401 8.02387 11.9567 8.053 11.8783C8.08212 11.7999 8.1264 11.728 8.1833 11.6668L12.4583 7.4001C12.6152 7.24318 12.7034 7.03035 12.7034 6.80843C12.7034 6.58651 12.6152 6.37368 12.4583 6.21676C12.3014 6.05984 12.0886 5.97169 11.8666 5.97169C11.6447 5.97169 11.4319 6.05984 11.275 6.21676L6.99997 10.5001C6.78606 10.7123 6.61628 10.9648 6.50041 11.243C6.38455 11.5212 6.3249 11.8196 6.3249 12.1209C6.3249 12.4223 6.38455 12.7206 6.50041 12.9988C6.61628 13.277 6.78606 13.5295 6.99997 13.7418C7.43695 14.158 8.01731 14.3902 8.6208 14.3902C9.2243 14.3902 9.80466 14.158 10.2416 13.7418L15.9833 7.99176C16.6457 7.28089 17.0063 6.34065 16.9892 5.36915C16.972 4.39764 16.5785 3.47072 15.8914 2.78365C15.2043 2.09659 14.2774 1.70303 13.3059 1.68589C12.3344 1.66875 11.3942 2.02936 10.6833 2.69176L4.01664 9.35843C3.11764 10.3541 2.63749 11.6583 2.67625 12.9992C2.715 14.3402 3.26966 15.6145 4.22467 16.5566C5.17967 17.4987 6.46137 18.036 7.80271 18.0565C9.14405 18.077 10.4416 17.5792 11.425 16.6668L16.5833 11.5168C16.661 11.4391 16.7226 11.3468 16.7647 11.2453C16.8067 11.1438 16.8284 11.035 16.8284 10.9251C16.8284 10.8152 16.8067 10.7064 16.7647 10.6049C16.7226 10.5034 16.661 10.4111 16.5833 10.3334C16.5056 10.2557 16.4134 10.1941 16.3118 10.152C16.2103 10.11 16.1015 10.0884 15.9916 10.0884C15.8818 10.0884 15.7729 10.11 15.6714 10.152C15.5699 10.1941 15.4777 10.2557 15.4 10.3334V10.3501Z" fill="#A7A7A7"/>
</svg>
