<svg width="21" height="20" viewBox="0 0 21 20" fill="none" xmlns="http://www.w3.org/2000/svg">
<path d="M15.7333 10.3501L10.5833 15.5084C9.90817 16.1084 9.02927 16.4278 8.12642 16.4012C7.22357 16.3747 6.36499 16.0041 5.7263 15.3655C5.08761 14.7268 4.71708 13.8682 4.6905 12.9653C4.66392 12.0625 4.98331 11.1836 5.58332 10.5084L12.25 3.84176C12.648 3.46368 13.176 3.25287 13.725 3.25287C14.274 3.25287 14.802 3.46368 15.2 3.84176C15.5878 4.23475 15.8052 4.76465 15.8052 5.31676C15.8052 5.86887 15.5878 6.39877 15.2 6.79176L9.44999 12.5334C9.39308 12.5947 9.32466 12.6442 9.24863 12.679C9.17261 12.7139 9.09046 12.7334 9.00689 12.7365C8.92332 12.7396 8.83995 12.7262 8.76156 12.6971C8.68316 12.6679 8.61127 12.6237 8.54999 12.5668C8.4887 12.5099 8.43923 12.4414 8.40439 12.3654C8.36955 12.2894 8.35002 12.2072 8.34692 12.1237C8.34383 12.0401 8.35722 11.9567 8.38635 11.8783C8.41547 11.7999 8.45975 11.728 8.51665 11.6668L12.7917 7.4001C12.9486 7.24318 13.0367 7.03035 13.0367 6.80843C13.0367 6.58651 12.9486 6.37368 12.7917 6.21676C12.6347 6.05984 12.4219 5.97169 12.2 5.97169C11.9781 5.97169 11.7652 6.05984 11.6083 6.21676L7.33332 10.5001C7.11941 10.7123 6.94963 10.9648 6.83376 11.243C6.7179 11.5212 6.65825 11.8196 6.65825 12.1209C6.65825 12.4223 6.7179 12.7206 6.83376 12.9988C6.94963 13.277 7.11941 13.5295 7.33332 13.7418C7.7703 14.158 8.35066 14.3902 8.95415 14.3902C9.55765 14.3902 10.138 14.158 10.575 13.7418L16.3167 7.99176C16.9791 7.28089 17.3397 6.34065 17.3225 5.36915C17.3054 4.39764 16.9118 3.47072 16.2248 2.78365C15.5377 2.09659 14.6108 1.70303 13.6393 1.68589C12.6678 1.66875 11.7275 2.02936 11.0167 2.69176L4.34999 9.35843C3.45099 10.3541 2.97085 11.6583 3.0096 12.9992C3.04835 14.3402 3.60302 15.6145 4.55802 16.5566C5.51303 17.4987 6.79472 18.036 8.13606 18.0565C9.4774 18.077 10.7749 17.5792 11.7583 16.6668L16.9167 11.5168C16.9944 11.4391 17.056 11.3468 17.098 11.2453C17.1401 11.1438 17.1617 11.035 17.1617 10.9251C17.1617 10.8152 17.1401 10.7064 17.098 10.6049C17.056 10.5034 16.9944 10.4111 16.9167 10.3334C16.839 10.2557 16.7467 10.1941 16.6452 10.152C16.5437 10.11 16.4349 10.0884 16.325 10.0884C16.2151 10.0884 16.1063 10.11 16.0048 10.152C15.9033 10.1941 15.811 10.2557 15.7333 10.3334V10.3501Z" fill="#A7A7A7"/>
</svg>
