<svg width="20" height="20" viewBox="0 0 20 20" fill="none" xmlns="http://www.w3.org/2000/svg">
<path d="M15.0667 10.3499L9.91666 15.5082C9.2415 16.1082 8.36261 16.4276 7.45976 16.401C6.55691 16.3744 5.69832 16.0039 5.05963 15.3652C4.42094 14.7265 4.05042 13.8679 4.02384 12.9651C3.99726 12.0622 4.31664 11.1833 4.91666 10.5082L11.5833 3.84152C11.9813 3.46343 12.5094 3.25263 13.0583 3.25263C13.6073 3.25263 14.1353 3.46343 14.5333 3.84152C14.9211 4.23451 15.1385 4.76441 15.1385 5.31652C15.1385 5.86863 14.9211 6.39853 14.5333 6.79152L8.78332 12.5332C8.72642 12.5945 8.658 12.6439 8.58197 12.6788C8.50594 12.7136 8.4238 12.7332 8.34023 12.7362C8.25665 12.7393 8.17329 12.7259 8.09489 12.6968C8.0165 12.6677 7.94461 12.6234 7.88332 12.5665C7.82204 12.5096 7.77256 12.4412 7.73772 12.3652C7.70288 12.2891 7.68336 12.207 7.68026 12.1234C7.67717 12.0398 7.69056 11.9565 7.71968 11.8781C7.74881 11.7997 7.79308 11.7278 7.84999 11.6665L12.125 7.39985C12.2819 7.24293 12.3701 7.0301 12.3701 6.80818C12.3701 6.58627 12.2819 6.37344 12.125 6.21652C11.9681 6.0596 11.7552 5.97144 11.5333 5.97144C11.3114 5.97144 11.0986 6.0596 10.9417 6.21652L6.66666 10.4999C6.45274 10.7121 6.28296 10.9646 6.1671 11.2428C6.05124 11.521 5.99159 11.8193 5.99159 12.1207C5.99159 12.422 6.05124 12.7204 6.1671 12.9986C6.28296 13.2768 6.45274 13.5293 6.66666 13.7415C7.10363 14.1578 7.684 14.3899 8.28749 14.3899C8.89098 14.3899 9.47135 14.1578 9.90832 13.7415L15.65 7.99152C16.3124 7.28064 16.673 6.34041 16.6559 5.36891C16.6387 4.3974 16.2452 3.47047 15.5581 2.78341C14.871 2.09634 13.9441 1.70278 12.9726 1.68564C12.0011 1.6685 11.0609 2.02912 10.35 2.69152L3.68332 9.35818C2.78432 10.3539 2.30418 11.6581 2.34294 12.999C2.38169 14.3399 2.93635 15.6142 3.89136 16.5563C4.84636 17.4984 6.12805 18.0357 7.46939 18.0563C8.81073 18.0768 10.1083 17.579 11.0917 16.6665L16.25 11.5165C16.3277 11.4388 16.3893 11.3466 16.4314 11.2451C16.4734 11.1435 16.4951 11.0347 16.4951 10.9249C16.4951 10.815 16.4734 10.7062 16.4314 10.6046C16.3893 10.5031 16.3277 10.4109 16.25 10.3332C16.1723 10.2555 16.08 10.1939 15.9785 10.1518C15.877 10.1098 15.7682 10.0881 15.6583 10.0881C15.5484 10.0881 15.4396 10.1098 15.3381 10.1518C15.2366 10.1939 15.1444 10.2555 15.0667 10.3332V10.3499Z" fill="#A7A7A7"/>
</svg>
