<svg width="16" height="16" viewBox="0 0 16 16" fill="none" xmlns="http://www.w3.org/2000/svg">
<path d="M12.6667 7.33317H8.66669V3.33317C8.66669 3.15636 8.59645 2.98679 8.47142 2.86177C8.3464 2.73674 8.17683 2.6665 8.00002 2.6665C7.82321 2.6665 7.65364 2.73674 7.52862 2.86177C7.40359 2.98679 7.33335 3.15636 7.33335 3.33317V7.33317H3.33335C3.15654 7.33317 2.98697 7.40341 2.86195 7.52843C2.73693 7.65346 2.66669 7.82303 2.66669 7.99984C2.66669 8.17665 2.73693 8.34622 2.86195 8.47124C2.98697 8.59627 3.15654 8.6665 3.33335 8.6665H7.33335V12.6665C7.33335 12.8433 7.40359 13.0129 7.52862 13.1379C7.65364 13.2629 7.82321 13.3332 8.00002 13.3332C8.17683 13.3332 8.3464 13.2629 8.47142 13.1379C8.59645 13.0129 8.66669 12.8433 8.66669 12.6665V8.6665H12.6667C12.8435 8.6665 13.0131 8.59627 13.1381 8.47124C13.2631 8.34622 13.3334 8.17665 13.3334 7.99984C13.3334 7.82303 13.2631 7.65346 13.1381 7.52843C13.0131 7.40341 12.8435 7.33317 12.6667 7.33317Z" fill="#959595"/>
</svg>
