<svg width="20" height="20" viewBox="0 0 20 20" fill="none" xmlns="http://www.w3.org/2000/svg">
<path d="M15.8333 9.16658H10.8333V4.16659C10.8333 3.94557 10.7455 3.73361 10.5893 3.57733C10.433 3.42105 10.221 3.33325 10 3.33325C9.779 3.33325 9.56703 3.42105 9.41075 3.57733C9.25447 3.73361 9.16668 3.94557 9.16668 4.16659V9.16658H4.16668C3.94566 9.16658 3.7337 9.25438 3.57742 9.41066C3.42114 9.56694 3.33334 9.7789 3.33334 9.99992C3.33334 10.2209 3.42114 10.4329 3.57742 10.5892C3.7337 10.7455 3.94566 10.8333 4.16668 10.8333H9.16668V15.8333C9.16668 16.0543 9.25447 16.2662 9.41075 16.4225C9.56703 16.5788 9.779 16.6666 10 16.6666C10.221 16.6666 10.433 16.5788 10.5893 16.4225C10.7455 16.2662 10.8333 16.0543 10.8333 15.8333V10.8333H15.8333C16.0544 10.8333 16.2663 10.7455 16.4226 10.5892C16.5789 10.4329 16.6667 10.2209 16.6667 9.99992C16.6667 9.7789 16.5789 9.56694 16.4226 9.41066C16.2663 9.25438 16.0544 9.16658 15.8333 9.16658Z" fill="white"/>
</svg>
