<svg width="20" height="20" viewBox="0 0 20 20" fill="none" xmlns="http://www.w3.org/2000/svg">
<path d="M4.75835 5.24167C4.67909 5.1658 4.58564 5.10633 4.48335 5.06667C4.28046 4.98332 4.0529 4.98332 3.85001 5.06667C3.74772 5.10633 3.65427 5.1658 3.57501 5.24167L1.90835 6.90833C1.75143 7.06525 1.66327 7.27808 1.66327 7.5C1.66327 7.72192 1.75143 7.93475 1.90835 8.09167C2.06527 8.24859 2.27809 8.33674 2.50001 8.33674C2.72193 8.33674 2.93476 8.24859 3.09168 8.09167L3.33335 7.84167V14.1667C3.33335 14.3877 3.42114 14.5996 3.57742 14.7559C3.7337 14.9122 3.94567 15 4.16668 15C4.38769 15 4.59965 14.9122 4.75593 14.7559C4.91221 14.5996 5.00001 14.3877 5.00001 14.1667V7.84167L5.24168 8.09167C5.31915 8.16977 5.41132 8.23177 5.51287 8.27408C5.61441 8.31638 5.72334 8.33817 5.83335 8.33817C5.94336 8.33817 6.05228 8.31638 6.15383 8.27408C6.25538 8.23177 6.34754 8.16977 6.42501 8.09167C6.50312 8.0142 6.56511 7.92203 6.60742 7.82048C6.64973 7.71893 6.67151 7.61001 6.67151 7.5C6.67151 7.38999 6.64973 7.28107 6.60742 7.17952C6.56511 7.07797 6.50312 6.9858 6.42501 6.90833L4.75835 5.24167ZM9.16668 6.66667H17.5C17.721 6.66667 17.933 6.57887 18.0893 6.42259C18.2455 6.26631 18.3333 6.05435 18.3333 5.83333C18.3333 5.61232 18.2455 5.40036 18.0893 5.24408C17.933 5.0878 17.721 5 17.5 5H9.16668C8.94566 5 8.7337 5.0878 8.57742 5.24408C8.42114 5.40036 8.33335 5.61232 8.33335 5.83333C8.33335 6.05435 8.42114 6.26631 8.57742 6.42259C8.7337 6.57887 8.94566 6.66667 9.16668 6.66667ZM17.5 13.3333H9.16668C8.94566 13.3333 8.7337 13.4211 8.57742 13.5774C8.42114 13.7337 8.33335 13.9457 8.33335 14.1667C8.33335 14.3877 8.42114 14.5996 8.57742 14.7559C8.7337 14.9122 8.94566 15 9.16668 15H17.5C17.721 15 17.933 14.9122 18.0893 14.7559C18.2455 14.5996 18.3333 14.3877 18.3333 14.1667C18.3333 13.9457 18.2455 13.7337 18.0893 13.5774C17.933 13.4211 17.721 13.3333 17.5 13.3333ZM17.5 9.16667H9.16668C8.94566 9.16667 8.7337 9.25446 8.57742 9.41074C8.42114 9.56702 8.33335 9.77899 8.33335 10C8.33335 10.221 8.42114 10.433 8.57742 10.5893C8.7337 10.7455 8.94566 10.8333 9.16668 10.8333H17.5C17.721 10.8333 17.933 10.7455 18.0893 10.5893C18.2455 10.433 18.3333 10.221 18.3333 10C18.3333 9.77899 18.2455 9.56702 18.0893 9.41074C17.933 9.25446 17.721 9.16667 17.5 9.16667Z" fill="#959595"/>
</svg>
