<svg width="22" height="22" viewBox="0 0 22 22" fill="none" xmlns="http://www.w3.org/2000/svg">
<path d="M17.4166 5.95842H14.6666V5.04175C14.6666 4.3124 14.3769 3.61293 13.8612 3.0972C13.3455 2.58148 12.646 2.29175 11.9166 2.29175H10.0833C9.35397 2.29175 8.65449 2.58148 8.13877 3.0972C7.62304 3.61293 7.33331 4.3124 7.33331 5.04175V5.95842H4.58331C3.85397 5.95842 3.15449 6.24815 2.63877 6.76387C2.12304 7.2796 1.83331 7.97907 1.83331 8.70842V16.9584C1.83331 17.6878 2.12304 18.3872 2.63877 18.903C3.15449 19.4187 3.85397 19.7084 4.58331 19.7084H17.4166C18.146 19.7084 18.8455 19.4187 19.3612 18.903C19.8769 18.3872 20.1666 17.6878 20.1666 16.9584V8.70842C20.1666 7.97907 19.8769 7.2796 19.3612 6.76387C18.8455 6.24815 18.146 5.95842 17.4166 5.95842ZM9.16665 5.04175C9.16665 4.79863 9.26322 4.56548 9.43513 4.39357C9.60704 4.22166 9.8402 4.12508 10.0833 4.12508H11.9166C12.1598 4.12508 12.3929 4.22166 12.5648 4.39357C12.7367 4.56548 12.8333 4.79863 12.8333 5.04175V5.95842H9.16665V5.04175ZM18.3333 16.9584C18.3333 17.2015 18.2367 17.4347 18.0648 17.6066C17.8929 17.7785 17.6598 17.8751 17.4166 17.8751H4.58331C4.3402 17.8751 4.10704 17.7785 3.93513 17.6066C3.76322 17.4347 3.66665 17.2015 3.66665 16.9584V12.3292H6.41665V13.2917C6.41665 13.5349 6.51322 13.768 6.68513 13.9399C6.85704 14.1118 7.0902 14.2084 7.33331 14.2084C7.57643 14.2084 7.80959 14.1118 7.98149 13.9399C8.1534 13.768 8.24998 13.5349 8.24998 13.2917V12.3292H13.75V13.2917C13.75 13.5349 13.8466 13.768 14.0185 13.9399C14.1904 14.1118 14.4235 14.2084 14.6666 14.2084C14.9098 14.2084 15.1429 14.1118 15.3148 13.9399C15.4867 13.768 15.5833 13.5349 15.5833 13.2917V12.3292H18.3333V16.9584ZM18.3333 10.5417H3.66665V8.70842C3.66665 8.4653 3.76322 8.23214 3.93513 8.06023C4.10704 7.88833 4.3402 7.79175 4.58331 7.79175H17.4166C17.6598 7.79175 17.8929 7.88833 18.0648 8.06023C18.2367 8.23214 18.3333 8.4653 18.3333 8.70842V10.5417Z" fill="white" fill-opacity="0.4"/>
</svg>
