<svg width="20" height="20" viewBox="0 0 20 20" fill="none" xmlns="http://www.w3.org/2000/svg">
<path d="M17.5 1.66675H2.49999C2.27898 1.66675 2.06701 1.75455 1.91073 1.91083C1.75445 2.06711 1.66666 2.27907 1.66666 2.50008V17.5001C1.66666 17.7211 1.75445 17.9331 1.91073 18.0893C2.06701 18.2456 2.27898 18.3334 2.49999 18.3334H17.5C17.721 18.3334 17.933 18.2456 18.0892 18.0893C18.2455 17.9331 18.3333 17.7211 18.3333 17.5001V2.50008C18.3333 2.27907 18.2455 2.06711 18.0892 1.91083C17.933 1.75455 17.721 1.66675 17.5 1.66675ZM9.16666 16.6667H3.33332V8.33342H9.16666V16.6667ZM16.6667 16.6667H10.8333V8.33342H16.6667V16.6667ZM16.6667 6.66675H3.33332V3.33341H16.6667V6.66675Z" fill="#959595"/>
</svg>
